<svg xmlns="http://www.w3.org/2000/svg" viewBox="0 0 32 32" width="128" height="128" shape-rendering="crispEdges">
  <!-- 픽셀 아트: 안경 낀 만두 (Pixel Glasses Dumpling) -->
  <!-- 꼭지 머리 주름 -->
  <rect x="15" y="4" width="2" height="2" fill="#F6D776"/>
  <rect x="13" y="5" width="2" height="2" fill="#E5B942"/>
  <rect x="17" y="5" width="2" height="2" fill="#E5B942"/>

  <!-- 만두 얼굴 테두리 & 본체 -->
  <rect x="10" y="6" width="12" height="2" fill="#E5B942"/>
  <rect x="8" y="8" width="16" height="2" fill="#FDECA6"/>
  <rect x="7" y="10" width="18" height="10" fill="#FDECA6"/>
  <rect x="8" y="20" width="16" height="2" fill="#FDECA6"/>
  <rect x="10" y="22" width="12" height="2" fill="#E5B942"/>

  <!-- 외곽선 음영 -->
  <rect x="6" y="11" width="1" height="8" fill="#D4A228"/>
  <rect x="25" y="11" width="1" height="8" fill="#D4A228"/>

  <!-- 검은색 픽셀 안경테 -->
  <rect x="8" y="13" width="7" height="5" fill="#222222"/>
  <rect x="17" y="13" width="7" height="5" fill="#222222"/>
  <rect x="15" y="14" width="2" height="1" fill="#222222"/>

  <!-- 안경 렌즈 (흰색/투명) -->
  <rect x="9" y="14" width="5" height="3" fill="#FFFFFF"/>
  <rect x="18" y="14" width="5" height="3" fill="#FFFFFF"/>

  <!-- 픽셀 눈동자 & 하이라이트 -->
  <rect x="11" y="14" width="2" height="3" fill="#111111"/>
  <rect x="11" y="14" width="1" height="1" fill="#FFFFFF"/>
  <rect x="20" y="14" width="2" height="3" fill="#111111"/>
  <rect x="20" y="14" width="1" height="1" fill="#FFFFFF"/>

  <!-- 발그레한 핑크 픽셀 볼터치 -->
  <rect x="8" y="19" width="3" height="1" fill="#FF8A80"/>
  <rect x="21" y="19" width="3" height="1" fill="#FF8A80"/>

  <!-- 미소 픽셀 입 -->
  <rect x="15" y="19" width="2" height="1" fill="#8D6E63"/>

  <!-- 앙증맞은 몸통 & 발 -->
  <rect x="13" y="23" width="6" height="3" fill="#FDECA6"/>
  <rect x="12" y="26" width="3" height="2" fill="#E5B942"/>
  <rect x="17" y="26" width="3" height="2" fill="#E5B942"/>
</svg>
